<?xml version="1.0" encoding="UTF-8"?>
<svg xmlns="http://www.w3.org/2000/svg" viewBox="0 0 1254 1254" width="1254" height="1254" role="img" aria-labelledby="title desc">
  <title id="title">SCBIRLab duvidnn logo</title>
  <desc id="desc">Vector trace of the generated SCBIRLab duvidnn logo. Converted from PNG into quantized SVG paths.</desc>
  <g fill-rule="evenodd" stroke="none">
    <path fill="#038E8B" d="M 834 875 L 835 878 L 833 879 L 838 883 L 844 885 L 845 887 L 854 889 L 854 886 L 851 884 L 847 887 L 845 885 L 845 881 Z M 890 873 L 881 876 L 878 883 L 868 894 L 865 894 L 864 899 L 867 901 L 874 901 L 875 904 L 870 904 L 864 915 L 868 923 L 874 921 L 878 916 L 884 915 L 885 918 L 879 927 L 879 933 L 884 937 L 890 931 L 892 931 L 897 935 L 896 937 L 900 938 L 901 936 L 903 937 L 906 935 L 902 928 L 903 923 L 912 928 L 914 931 L 919 923 L 916 922 L 913 916 L 913 911 L 916 909 L 924 913 L 920 904 L 917 902 L 919 898 L 923 900 L 924 898 L 922 897 L 922 892 L 920 891 L 919 886 L 910 887 L 907 885 L 907 876 L 902 874 L 892 880 Z M 817 866 L 814 869 L 824 876 L 826 871 Z M 802 859 L 800 863 L 806 865 L 808 861 Z M 760 811 L 747 819 L 745 822 L 747 823 L 746 825 L 742 825 L 741 827 L 744 828 L 744 831 L 741 831 L 742 836 L 738 838 L 738 845 L 740 851 L 744 852 L 744 856 L 742 858 L 748 864 L 752 864 L 751 868 L 754 868 L 757 871 L 760 870 L 761 872 L 772 872 L 773 870 L 776 871 L 777 869 L 782 868 L 789 861 L 787 858 L 789 852 L 794 851 L 795 842 L 793 841 L 793 838 L 795 836 L 789 832 L 788 826 L 793 826 L 795 824 L 794 822 L 789 822 L 782 815 L 776 812 L 774 815 L 770 815 L 769 813 L 773 811 Z M 716 781 L 730 802 L 733 804 L 734 802 L 736 803 L 737 806 L 734 806 L 736 811 L 738 812 L 741 810 L 720 779 L 720 784 L 718 784 Z M 841 780 L 839 778 L 810 804 L 802 812 L 804 815 L 803 818 L 797 817 L 795 819 L 798 822 L 813 808 L 813 803 L 816 800 L 822 800 L 840 783 Z M 898 775 L 895 779 L 896 786 L 898 787 L 898 798 L 896 799 L 898 800 L 896 802 L 898 808 L 896 809 L 895 850 L 898 853 L 898 860 Z M 854 764 L 842 775 L 844 773 L 848 774 L 850 771 L 855 769 Z M 863 756 L 861 756 L 858 760 L 862 761 L 864 759 Z M 764 754 L 759 757 L 760 760 L 765 758 Z M 772 741 L 772 744 L 778 744 L 777 739 Z M 786 723 L 785 727 L 787 726 L 788 729 L 790 724 Z M 885 695 L 879 699 L 882 703 L 880 707 L 872 706 L 869 710 L 872 713 L 872 719 L 868 727 L 865 725 L 865 722 L 867 737 L 876 737 L 877 733 L 881 736 L 881 739 L 874 747 L 878 750 L 878 752 L 885 753 L 889 747 L 892 747 L 893 756 L 899 757 L 912 740 L 917 741 L 918 743 L 923 736 L 923 726 L 922 730 L 918 730 L 917 727 L 920 720 L 924 718 L 922 717 L 922 712 L 918 707 L 909 716 L 906 715 L 906 707 L 911 703 L 911 699 L 905 695 L 895 705 L 890 695 Z M 897 734 L 899 737 L 896 741 L 894 741 L 893 738 Z M 891 709 L 892 714 L 889 715 L 888 719 L 886 718 L 884 720 L 883 716 L 886 714 L 886 710 Z M 822 694 L 825 697 L 827 696 L 837 702 L 845 704 L 848 701 L 827 692 L 825 695 Z M 762 665 L 765 667 L 763 670 L 776 676 L 778 675 L 783 679 L 794 682 L 797 685 L 799 684 L 804 688 L 810 689 L 811 691 L 814 688 L 813 686 L 785 674 L 785 678 L 781 677 L 780 675 L 783 673 Z M 813 656 L 811 661 L 816 662 L 817 657 Z M 819 633 L 815 634 L 815 638 L 817 640 L 819 638 L 817 636 L 820 635 Z M 816 608 L 814 613 L 819 614 L 820 609 Z M 810 587 L 812 591 L 815 591 L 817 588 L 816 585 Z M 898 574 L 895 578 L 896 591 L 898 592 L 898 597 L 896 598 L 898 600 L 898 659 L 896 660 L 896 668 L 898 669 L 898 672 Z M 824 556 L 822 554 L 818 554 L 813 558 L 811 557 L 810 559 L 806 559 L 795 564 L 794 566 L 792 565 L 771 574 L 772 577 L 774 578 L 796 569 L 797 567 L 808 564 L 808 560 L 811 558 L 820 559 Z M 858 542 L 855 538 L 848 541 L 846 544 L 841 544 L 836 548 L 832 548 L 831 550 L 833 550 L 834 553 L 839 549 L 850 546 L 847 544 L 848 542 L 854 543 L 854 540 Z M 787 519 L 785 519 L 784 525 L 788 524 Z M 888 488 L 880 493 L 881 501 L 871 508 L 869 507 L 866 511 L 867 514 L 872 517 L 867 531 L 871 537 L 879 530 L 883 530 L 886 533 L 880 546 L 882 548 L 890 549 L 890 547 L 897 541 L 901 543 L 901 546 L 904 547 L 905 550 L 910 546 L 908 545 L 908 537 L 913 530 L 915 531 L 918 538 L 921 535 L 921 532 L 915 528 L 918 520 L 921 518 L 923 519 L 924 512 L 922 511 L 921 506 L 917 500 L 910 510 L 906 509 L 905 505 L 909 500 L 909 491 L 902 488 L 897 489 L 896 487 L 894 489 Z M 884 513 L 886 513 L 888 515 L 887 517 L 889 518 L 887 520 L 886 527 L 881 524 L 880 516 Z M 859 481 L 856 484 L 862 490 L 865 486 Z M 738 432 L 728 446 L 727 450 L 716 464 L 720 464 L 719 468 L 741 436 Z M 794 425 L 813 443 L 813 445 L 815 445 L 854 482 L 854 476 L 844 466 L 837 461 L 834 463 L 827 450 L 805 431 L 802 433 L 800 431 L 800 425 Z M 898 384 L 895 391 L 896 405 L 898 406 L 896 408 L 896 421 L 898 422 L 898 435 L 896 436 L 896 461 L 898 462 L 898 469 Z M 807 379 L 801 382 L 802 386 L 807 384 Z M 768 370 L 754 373 L 745 382 L 749 378 L 751 380 L 746 385 L 744 384 L 741 387 L 739 393 L 742 396 L 742 399 L 738 401 L 739 411 L 748 417 L 748 421 L 745 421 L 746 424 L 760 432 L 764 427 L 771 426 L 776 431 L 785 426 L 785 417 L 792 413 L 795 407 L 791 402 L 791 398 L 793 396 L 795 397 L 794 392 L 790 391 L 791 388 L 793 389 L 787 379 L 779 373 L 775 373 L 778 374 L 775 376 L 772 374 L 773 372 Z M 828 368 L 823 369 L 815 375 L 818 378 L 821 375 L 827 373 Z M 855 355 L 852 353 L 839 362 L 830 365 L 839 363 L 840 366 L 841 362 L 845 358 L 849 357 L 852 359 Z M 899 301 L 892 302 L 893 304 L 888 311 L 885 309 L 884 302 L 879 310 L 871 318 L 867 318 L 864 325 L 868 327 L 867 337 L 865 340 L 863 339 L 865 347 L 873 346 L 875 348 L 876 357 L 881 360 L 885 366 L 892 357 L 894 360 L 897 360 L 904 365 L 907 364 L 906 355 L 901 353 L 903 347 L 906 347 L 913 355 L 917 356 L 919 351 L 914 344 L 903 343 L 903 338 L 907 333 L 913 332 L 918 338 L 921 338 L 924 341 L 922 329 L 924 327 L 922 325 L 921 328 L 914 327 L 914 322 L 918 316 L 918 313 L 913 309 L 909 314 L 904 314 L 903 307 L 905 303 Z M 888 341 L 890 342 L 889 347 L 885 345 Z M 900 316 L 902 323 L 899 323 L 899 325 L 896 327 L 892 326 L 891 323 L 893 318 Z M 867 287 L 865 291 L 869 292 L 870 288 Z M 847 263 L 843 271 L 847 274 L 850 274 L 853 266 Z M 823 239 L 820 240 L 820 244 L 817 244 L 816 247 L 820 251 L 824 245 L 827 244 L 827 242 Z M 793 218 L 786 222 L 786 226 L 789 229 L 795 228 L 797 221 Z M 760 200 L 753 204 L 753 209 L 759 212 L 764 209 L 764 205 Z M 720 187 L 718 189 L 718 196 L 723 199 L 727 196 L 728 191 L 725 187 Z M 683 178 L 679 184 L 686 187 L 686 190 L 684 190 L 686 190 L 691 185 L 690 180 Z"/>
    <path fill="#E43B2B" d="M 527 1039 L 523 1042 L 523 1048 L 529 1051 L 534 1047 L 533 1040 Z M 493 1026 L 489 1029 L 488 1035 L 491 1038 L 496 1038 L 499 1035 L 499 1029 L 496 1026 Z M 356 873 L 355 875 L 346 877 L 334 889 L 332 893 L 333 895 L 331 896 L 332 899 L 330 900 L 330 912 L 332 913 L 331 916 L 333 917 L 332 919 L 335 925 L 337 925 L 338 929 L 340 929 L 344 934 L 350 937 L 353 936 L 354 938 L 367 938 L 368 936 L 373 936 L 375 933 L 377 934 L 378 931 L 381 931 L 388 922 L 391 914 L 390 910 L 392 908 L 391 897 L 389 896 L 390 894 L 388 893 L 389 891 L 386 886 L 379 881 L 378 878 L 376 879 L 372 875 L 365 873 L 360 875 Z M 445 865 L 438 867 L 429 874 L 419 877 L 409 884 L 401 886 L 402 891 L 424 878 L 428 878 L 436 874 L 438 871 L 445 868 Z M 457 860 L 455 859 L 451 861 L 448 866 L 457 863 Z M 356 770 L 355 860 L 360 861 L 359 770 Z M 506 769 L 507 774 L 509 774 L 511 770 Z M 492 755 L 491 759 L 495 760 L 496 756 Z M 393 755 L 391 758 L 399 765 L 399 767 L 409 774 L 411 778 L 416 781 L 426 792 L 428 791 L 438 803 L 441 802 L 451 815 L 448 811 L 454 811 L 450 808 L 450 806 L 448 806 L 437 794 L 435 794 L 425 785 L 423 781 L 421 781 L 411 770 L 409 770 Z M 481 739 L 476 741 L 476 744 L 479 746 L 483 743 Z M 466 723 L 465 727 L 469 729 L 471 724 Z M 460 705 L 457 705 L 455 708 L 456 711 L 460 710 Z M 356 693 L 355 695 L 349 695 L 345 697 L 334 708 L 334 711 L 331 714 L 332 717 L 330 718 L 332 719 L 330 732 L 332 733 L 331 735 L 337 744 L 337 747 L 344 753 L 350 756 L 352 754 L 354 757 L 365 757 L 366 755 L 371 755 L 373 752 L 375 753 L 375 751 L 379 750 L 381 745 L 384 744 L 383 741 L 386 740 L 389 730 L 389 719 L 385 708 L 377 701 L 376 698 L 367 694 L 364 695 L 363 693 Z M 502 666 L 499 667 L 498 663 L 483 670 L 473 673 L 466 678 L 461 678 L 456 682 L 442 686 L 439 689 L 439 692 L 428 692 L 425 695 L 423 694 L 421 697 L 414 698 L 403 703 L 402 705 L 400 704 L 398 707 L 400 710 L 405 706 L 407 707 L 412 703 L 416 703 L 419 700 L 421 701 L 424 698 L 426 699 L 433 694 L 435 695 L 438 692 L 440 693 L 454 685 L 456 686 L 458 683 L 463 683 L 468 679 L 470 680 L 473 677 L 475 678 L 480 674 L 482 675 Z M 441 659 L 439 664 L 444 664 L 444 661 Z M 436 640 L 434 643 L 435 645 L 440 645 L 440 641 Z M 435 621 L 433 625 L 438 627 L 438 622 Z M 440 582 L 439 586 L 444 586 L 444 584 Z M 461 568 L 460 570 L 462 573 L 466 575 L 468 572 L 476 574 L 476 579 L 502 590 L 503 586 L 501 587 L 498 583 L 481 577 L 476 573 L 474 574 L 469 570 Z M 357 565 L 355 568 L 355 680 L 360 679 L 360 578 L 358 572 L 359 567 Z M 396 543 L 398 544 L 399 541 L 402 541 L 403 546 L 422 555 L 425 554 L 427 557 L 433 560 L 436 559 L 440 563 L 455 570 L 456 566 L 459 567 L 458 565 L 456 566 L 453 563 L 445 559 L 443 560 L 436 555 L 434 556 L 429 554 L 425 550 L 423 551 L 414 545 L 405 543 L 401 539 Z M 461 538 L 457 538 L 455 542 L 461 542 Z M 471 517 L 469 517 L 466 521 L 468 524 L 470 524 L 473 520 Z M 352 488 L 351 490 L 342 494 L 333 504 L 334 506 L 330 512 L 332 513 L 330 527 L 332 528 L 331 530 L 333 531 L 334 537 L 342 546 L 349 550 L 351 549 L 352 551 L 355 550 L 356 552 L 361 552 L 374 548 L 381 539 L 383 540 L 382 538 L 387 532 L 385 529 L 388 529 L 387 526 L 389 525 L 388 510 L 386 509 L 387 507 L 385 506 L 386 504 L 384 503 L 383 499 L 377 495 L 376 492 L 367 488 L 364 489 L 363 487 Z M 505 476 L 504 480 L 508 481 L 509 477 Z M 412 474 L 407 472 L 391 488 L 393 490 L 397 488 L 401 482 Z M 425 456 L 416 464 L 418 466 L 426 461 L 424 458 Z M 438 444 L 431 450 L 433 453 L 440 448 Z M 452 381 L 451 385 L 455 387 L 457 384 Z M 355 381 L 355 474 L 359 473 L 360 466 L 360 389 L 359 382 Z M 400 356 L 402 359 L 414 364 L 421 369 L 421 366 L 423 365 L 426 369 L 425 371 L 429 370 L 430 372 L 428 373 L 436 377 L 438 374 L 443 376 L 403 353 Z M 351 302 L 337 313 L 333 323 L 331 324 L 332 327 L 330 328 L 330 340 L 332 341 L 331 345 L 334 348 L 334 352 L 343 360 L 343 362 L 345 360 L 351 366 L 356 367 L 357 365 L 362 365 L 366 367 L 375 364 L 376 361 L 378 362 L 382 356 L 382 352 L 385 352 L 386 354 L 391 342 L 390 338 L 392 337 L 392 331 L 390 330 L 390 322 L 385 316 L 386 314 L 384 314 L 378 306 L 373 303 L 371 304 L 370 302 L 368 303 L 367 301 Z M 435 233 L 431 239 L 438 245 L 443 240 L 441 239 L 443 237 L 441 234 Z M 433 235 L 435 234 L 439 237 L 436 238 Z M 465 214 L 461 222 L 462 224 L 470 225 L 472 217 L 469 214 Z M 501 198 L 497 199 L 493 203 L 493 206 L 497 210 L 501 210 L 505 205 Z"/>
    <path fill="#ED2866" d="M 461 1010 L 457 1014 L 456 1018 L 460 1022 L 465 1022 L 468 1018 L 468 1014 L 466 1011 Z M 431 992 L 428 995 L 428 1001 L 432 1004 L 437 1003 L 439 1000 L 438 994 L 436 992 Z M 408 970 L 404 972 L 402 976 L 403 980 L 406 982 L 410 982 L 413 979 L 413 973 Z M 387 947 L 384 948 L 381 952 L 381 956 L 384 959 L 388 959 L 392 955 L 391 950 Z M 224 805 L 222 808 L 223 811 L 313 876 L 321 880 L 323 876 Z M 185 748 L 173 752 L 163 761 L 157 775 L 157 787 L 162 800 L 168 807 L 180 813 L 190 814 L 203 810 L 212 802 L 217 793 L 219 779 L 214 763 L 206 754 L 196 749 Z M 319 743 L 317 741 L 227 769 L 229 774 L 319 746 Z M 323 700 L 271 656 L 267 660 L 271 666 L 215 747 L 219 750 L 275 668 L 318 703 L 321 704 Z M 239 592 L 227 598 L 221 605 L 216 617 L 216 631 L 221 642 L 229 650 L 239 654 L 250 654 L 260 650 L 269 640 L 273 630 L 273 616 L 270 607 L 260 596 L 250 592 Z M 215 498 L 270 578 L 271 582 L 266 587 L 270 590 L 323 545 L 321 542 L 319 542 L 277 577 L 275 577 L 219 495 Z M 228 472 L 319 496 L 320 494 L 319 491 L 231 467 Z M 186 430 L 172 435 L 164 442 L 158 453 L 157 470 L 161 481 L 169 490 L 182 496 L 193 496 L 205 491 L 212 484 L 217 475 L 219 461 L 214 445 L 206 436 L 195 431 Z M 322 363 L 314 367 L 222 434 L 221 437 L 224 439 L 321 369 L 324 366 Z M 386 280 L 382 287 L 384 290 L 390 291 L 393 288 L 393 283 L 390 280 Z M 410 255 L 405 259 L 405 263 L 407 266 L 412 267 L 416 264 L 417 260 L 415 256 Z"/>
    <path fill="#0597CE" d="M 685 1047 L 682 1047 L 677 1051 L 677 1054 L 680 1054 L 678 1058 L 679 1059 L 687 1058 L 688 1050 Z M 718 1039 L 714 1043 L 714 1046 L 718 1051 L 722 1051 L 726 1044 L 723 1039 Z M 754 1026 L 750 1029 L 749 1033 L 752 1038 L 758 1038 L 761 1034 L 761 1031 L 757 1026 Z M 785 1011 L 782 1014 L 783 1021 L 792 1021 L 794 1017 L 793 1013 L 791 1011 Z M 815 992 L 811 996 L 811 1000 L 813 1003 L 818 1004 L 822 1001 L 823 996 L 821 993 Z M 845 971 L 841 971 L 838 975 L 838 980 L 843 983 L 849 979 L 849 975 Z M 865 947 L 862 949 L 860 955 L 861 957 L 867 959 L 871 956 L 871 951 L 869 948 Z M 1024 810 L 1021 808 L 930 875 L 929 877 L 931 880 L 1024 813 Z M 1053 748 L 1043 751 L 1032 760 L 1026 771 L 1025 788 L 1030 800 L 1039 809 L 1048 813 L 1059 814 L 1073 809 L 1081 801 L 1087 787 L 1087 775 L 1082 762 L 1073 753 L 1064 749 Z M 935 745 L 1015 770 L 1017 766 L 937 740 Z M 1041 506 L 1037 510 L 1019 545 L 977 618 L 971 612 L 928 552 L 925 555 L 973 623 L 971 629 L 925 691 L 928 694 L 931 692 L 973 633 L 977 630 L 996 661 L 1039 740 L 1044 738 L 980 623 L 1044 508 Z M 1085 450 L 1081 443 L 1074 436 L 1067 432 L 1059 430 L 1046 432 L 1036 438 L 1029 447 L 1025 457 L 1026 472 L 1024 474 L 936 502 L 935 505 L 936 507 L 939 507 L 1018 481 L 1026 477 L 1037 490 L 1044 494 L 1051 496 L 1065 495 L 1077 488 L 1085 476 L 1087 469 L 1087 457 Z M 928 366 L 928 369 L 1021 437 L 1025 433 L 944 373 L 931 364 Z"/>
    <path fill="#FDDBD0" d="M 572 764 L 598 772 L 631 775 L 652 773 L 673 768 L 686 763 L 686 761 L 675 744 L 657 749 L 637 752 L 611 751 L 584 744 Z M 676 713 L 676 715 L 672 717 L 683 734 L 686 732 L 686 728 Z M 491 686 L 502 708 L 514 724 L 528 738 L 543 748 L 555 729 L 532 709 L 519 691 L 513 678 L 511 677 Z M 483 595 L 479 595 L 477 608 L 477 640 L 480 656 L 501 647 L 499 628 L 501 603 Z M 545 500 L 531 509 L 514 526 L 498 549 L 490 565 L 509 574 L 512 573 L 518 559 L 529 543 L 541 530 L 557 518 Z M 576 486 L 587 505 L 594 502 L 611 499 L 638 498 L 652 500 L 671 506 L 684 487 L 680 484 L 667 480 L 630 475 L 595 479 Z"/>
    <path fill="#FC6F09" d="M 628 810 L 625 815 L 629 817 L 631 816 L 631 811 Z M 652 809 L 648 810 L 646 813 L 651 815 L 653 813 Z M 669 805 L 668 810 L 672 811 L 674 808 L 672 805 Z M 689 798 L 687 802 L 688 804 L 692 804 L 694 800 Z M 562 753 L 560 755 L 556 755 L 552 763 L 555 764 L 555 761 L 558 760 L 557 757 L 560 757 Z M 621 565 L 609 568 L 592 579 L 582 591 L 574 609 L 573 633 L 581 655 L 595 671 L 612 680 L 634 682 L 649 678 L 658 673 L 672 659 L 682 638 L 683 615 L 676 594 L 662 577 L 644 567 L 635 565 Z M 556 489 L 570 512 L 570 509 L 574 510 L 561 489 Z M 559 494 L 562 492 L 565 497 L 561 498 Z M 688 450 L 686 453 L 688 456 L 690 456 L 692 451 Z M 669 443 L 666 447 L 668 450 L 671 450 L 673 446 Z M 647 440 L 645 444 L 650 446 L 651 441 Z M 625 439 L 623 443 L 627 445 L 628 440 Z"/>
    <path fill="#FBFBFA" d="M 926 898 L 926 914 L 920 927 L 907 938 L 895 941 L 887 940 L 897 941 L 906 939 L 913 935 L 921 927 L 927 911 Z M 392 895 L 393 914 L 386 928 L 374 938 L 368 940 L 354 940 L 363 941 L 375 938 L 387 928 L 391 921 L 394 909 Z M 459 861 L 459 863 L 403 893 L 458 865 Z M 526 835 L 526 849 L 524 855 L 515 867 L 502 874 L 489 874 L 481 870 L 489 874 L 504 874 L 515 868 L 524 856 L 527 844 Z M 1026 811 L 1025 814 L 932 882 L 1025 815 Z M 219 771 L 220 789 L 214 802 L 207 809 L 198 814 L 182 815 L 196 815 L 202 813 L 214 803 L 219 794 L 221 785 Z M 901 770 L 901 862 L 895 863 L 902 862 Z M 1087 769 L 1089 776 L 1089 787 L 1083 801 L 1074 810 L 1063 815 L 1049 815 L 1044 813 L 1056 816 L 1065 815 L 1074 811 L 1081 805 L 1089 789 L 1089 775 Z M 687 762 L 686 764 L 673 769 L 652 774 L 631 776 L 598 773 L 572 765 L 602 774 L 638 776 L 664 772 L 687 764 Z M 867 759 L 795 827 L 797 835 L 797 848 L 789 864 L 779 872 L 773 874 L 758 873 L 775 874 L 782 871 L 790 864 L 797 849 L 797 835 L 795 828 L 866 762 Z M 321 744 L 320 748 L 229 775 L 240 773 L 321 748 Z M 556 730 L 542 749 L 541 748 L 544 749 Z M 391 721 L 390 734 L 384 747 L 378 753 L 369 758 L 354 759 L 367 759 L 373 757 L 384 748 L 390 736 Z M 592 721 L 586 719 L 531 805 L 523 814 L 522 813 L 525 814 L 585 722 L 587 720 Z M 672 718 L 657 724 L 637 728 L 618 728 L 597 723 L 618 728 L 640 728 L 655 725 Z M 924 712 L 927 727 L 925 737 L 920 746 L 913 753 L 901 759 L 889 759 L 884 757 L 889 759 L 902 759 L 913 754 L 921 746 L 927 729 L 927 722 Z M 767 686 L 754 709 L 745 721 L 726 740 L 718 746 L 714 747 L 715 748 L 731 737 L 747 720 L 760 701 Z M 589 686 L 573 710 L 576 708 L 588 690 Z M 276 670 L 219 752 L 226 744 Z M 726 656 L 717 675 L 709 687 L 692 705 L 685 710 L 692 706 L 710 687 L 720 671 Z M 522 656 L 521 660 L 400 712 L 522 660 Z M 976 632 L 929 696 L 931 696 Z M 274 613 L 275 630 L 269 643 L 261 651 L 253 655 L 241 656 L 234 654 L 240 656 L 252 656 L 261 652 L 267 647 L 275 632 L 276 623 Z M 502 604 L 500 618 L 502 647 L 480 657 L 502 648 Z M 681 601 L 685 613 L 685 633 L 681 647 L 672 662 L 661 673 L 641 683 L 621 684 L 610 681 L 620 684 L 642 683 L 658 676 L 672 663 L 682 646 L 685 635 L 685 613 Z M 777 593 L 780 607 L 779 648 L 776 656 L 769 654 L 776 657 L 779 650 L 781 630 L 780 606 Z M 901 565 L 901 681 L 895 682 L 900 683 L 902 681 Z M 588 560 L 589 563 L 583 567 L 571 580 L 560 603 L 557 625 L 559 641 L 563 653 L 558 636 L 558 614 L 560 605 L 570 583 L 575 576 L 589 564 Z M 325 546 L 270 591 L 272 591 Z M 858 538 L 860 543 L 851 548 L 728 599 L 729 609 L 728 601 L 730 599 L 860 544 Z M 558 518 L 541 531 L 530 543 L 519 559 L 513 573 L 510 575 L 511 576 L 513 575 L 521 557 L 531 543 Z M 391 516 L 389 532 L 385 540 L 376 549 L 363 554 L 352 553 L 365 554 L 377 549 L 385 541 L 391 526 Z M 926 512 L 926 528 L 919 542 L 908 551 L 899 554 L 891 554 L 907 552 L 919 543 L 924 535 L 927 525 Z M 1046 508 L 982 623 L 983 626 L 985 619 L 1026 547 Z M 686 487 L 685 486 L 672 507 L 652 501 L 638 499 L 611 500 L 594 503 L 588 506 L 608 501 L 629 499 L 651 501 L 673 507 Z M 1027 479 L 995 491 L 936 509 L 941 509 L 1020 483 Z M 1088 454 L 1088 473 L 1084 482 L 1076 491 L 1062 498 L 1050 498 L 1045 496 L 1050 498 L 1063 498 L 1076 492 L 1082 486 L 1088 475 Z M 219 453 L 220 470 L 214 484 L 200 496 L 193 498 L 179 497 L 195 498 L 210 490 L 215 484 L 220 472 L 221 463 Z M 743 436 L 663 555 L 659 558 L 661 558 Z M 464 428 L 463 427 L 462 430 L 393 493 L 395 493 Z M 790 424 L 779 432 L 773 434 L 760 434 L 752 430 L 760 434 L 771 435 L 782 431 Z M 525 391 L 526 410 L 520 422 L 514 428 L 505 433 L 495 435 L 489 434 L 499 435 L 507 433 L 520 423 L 526 411 L 527 400 Z M 901 380 L 901 475 L 894 476 L 897 477 L 902 476 Z M 856 354 L 857 358 L 802 388 L 856 360 L 858 358 Z M 393 327 L 393 342 L 384 359 L 373 367 L 366 369 L 356 369 L 368 369 L 374 367 L 385 359 L 393 343 Z M 925 323 L 927 336 L 925 346 L 921 354 L 915 361 L 903 368 L 889 369 L 901 369 L 907 367 L 918 359 L 926 344 L 927 331 Z"/>
    <path fill="#EE4512" d="M 565 1047 L 561 1049 L 561 1056 L 564 1059 L 568 1059 L 571 1055 L 571 1050 Z M 489 811 L 479 816 L 475 820 L 468 832 L 467 847 L 471 858 L 480 868 L 490 872 L 502 872 L 503 870 L 505 871 L 506 869 L 511 868 L 519 860 L 524 847 L 524 835 L 519 823 L 511 815 L 501 811 Z M 606 810 L 607 814 L 605 815 L 610 815 L 610 810 Z M 587 806 L 584 805 L 581 808 L 583 812 L 587 811 Z M 563 798 L 561 800 L 561 804 L 564 805 L 567 802 L 566 799 Z M 431 795 L 457 820 L 462 817 L 456 815 L 455 812 L 451 810 L 451 807 L 450 810 L 447 810 L 437 798 Z M 556 754 L 520 810 L 524 812 L 554 765 L 551 765 L 551 761 L 554 757 L 557 758 L 556 762 L 559 758 Z M 520 436 L 558 494 L 557 492 L 561 490 L 524 432 Z M 454 431 L 450 432 L 446 437 L 448 439 L 451 435 L 454 435 Z M 446 376 L 440 373 L 439 375 L 433 375 L 443 379 Z M 493 370 L 483 373 L 474 381 L 468 393 L 467 407 L 470 417 L 480 428 L 488 432 L 497 433 L 508 430 L 519 420 L 524 408 L 524 395 L 519 383 L 513 376 L 503 371 Z M 531 187 L 529 189 L 529 193 L 533 198 L 535 198 L 539 194 L 539 189 L 536 187 Z M 568 178 L 564 185 L 567 189 L 571 190 L 575 187 L 576 182 L 573 178 Z"/>
    <path fill="#048484" d="M 885 937 L 898 938 L 892 932 L 890 932 Z M 903 924 L 903 928 L 906 931 L 905 936 L 910 934 L 915 929 L 910 929 Z M 880 916 L 874 922 L 868 924 L 875 932 L 883 936 L 878 933 L 878 927 L 884 918 L 884 916 Z M 874 901 L 872 902 L 870 900 L 867 902 L 864 900 L 864 913 L 867 906 L 870 903 L 874 904 Z M 922 893 L 923 897 L 917 899 L 924 911 L 918 912 L 913 909 L 913 906 L 909 908 L 914 910 L 914 916 L 919 924 L 917 927 L 924 912 L 924 899 Z M 845 882 L 846 885 L 844 886 L 853 890 L 854 888 L 852 887 L 849 889 L 848 887 L 850 884 Z M 907 877 L 908 885 L 918 886 L 921 891 L 918 885 L 912 879 Z M 880 877 L 870 885 L 866 893 L 868 893 L 877 883 Z M 890 874 L 893 880 L 895 877 L 901 874 Z M 823 875 L 836 882 L 832 874 L 826 872 Z M 807 861 L 808 863 L 804 865 L 817 872 L 814 870 L 816 866 Z M 793 852 L 790 852 L 788 858 L 791 858 Z M 788 826 L 790 832 L 794 834 L 795 841 L 793 827 Z M 742 826 L 739 833 L 739 838 L 743 831 Z M 797 816 L 802 818 L 804 816 L 801 813 Z M 735 801 L 731 803 L 735 809 L 738 805 Z M 816 798 L 811 803 L 814 803 L 814 807 L 819 802 L 818 800 L 815 800 Z M 895 771 L 895 778 L 899 780 L 899 784 L 895 784 L 895 840 L 896 836 L 899 837 L 899 852 L 896 853 L 895 851 L 895 861 L 899 861 L 899 771 Z M 865 759 L 862 762 L 857 760 L 853 764 L 855 765 L 855 768 L 849 774 L 845 774 L 844 772 L 850 766 L 836 780 L 841 779 L 841 782 Z M 894 735 L 894 740 L 896 740 L 898 736 Z M 868 738 L 871 745 L 877 751 L 886 756 L 896 757 L 892 756 L 892 749 L 894 747 L 893 745 L 885 754 L 882 754 L 875 749 L 875 744 L 881 737 L 880 734 L 877 733 L 876 737 Z M 923 716 L 918 727 L 922 738 L 917 742 L 911 741 L 909 746 L 900 756 L 908 754 L 919 744 L 923 735 L 921 730 L 924 730 Z M 870 712 L 868 712 L 866 717 L 867 726 L 869 725 L 872 717 Z M 891 709 L 887 710 L 887 714 L 884 716 L 885 720 L 889 717 L 889 714 L 891 715 Z M 795 705 L 794 710 L 798 711 L 799 706 Z M 842 704 L 852 708 L 855 705 L 857 706 L 847 701 L 845 704 Z M 912 699 L 912 703 L 905 710 L 907 711 L 907 716 L 917 707 L 920 708 Z M 882 697 L 872 705 L 880 706 L 881 703 L 878 699 Z M 886 695 L 891 696 L 894 699 L 895 704 L 901 698 L 906 696 L 902 694 Z M 808 689 L 829 698 L 826 696 L 828 693 L 815 687 L 812 690 Z M 786 675 L 783 674 L 777 676 L 784 679 Z M 895 565 L 895 577 L 899 577 L 898 584 L 895 583 L 895 580 L 895 680 L 899 680 L 899 566 L 896 568 Z M 896 662 L 899 663 L 898 668 L 895 667 Z M 817 560 L 813 558 L 814 556 L 805 560 L 807 560 L 809 563 Z M 840 550 L 834 552 L 830 549 L 819 554 L 822 553 L 823 557 Z M 906 549 L 902 548 L 899 542 L 896 542 L 890 550 L 885 550 L 897 552 Z M 857 540 L 856 538 L 852 540 L 854 541 L 853 543 L 850 543 L 849 541 L 844 543 L 848 544 L 849 546 L 856 543 Z M 795 537 L 793 541 L 797 543 L 799 539 Z M 914 531 L 910 534 L 908 548 L 912 546 L 920 537 L 916 536 Z M 882 530 L 879 531 L 875 536 L 870 537 L 872 541 L 881 548 L 880 543 L 885 534 Z M 924 518 L 919 520 L 916 530 L 918 529 L 922 532 L 921 534 L 924 526 Z M 886 514 L 882 515 L 880 519 L 882 521 L 882 527 L 886 526 L 886 520 L 888 519 Z M 866 512 L 866 528 L 871 520 L 871 516 L 867 515 Z M 908 491 L 910 493 L 910 500 L 906 505 L 906 511 L 908 509 L 910 510 L 917 500 L 920 502 L 923 511 L 918 499 Z M 881 491 L 875 495 L 867 508 L 871 507 L 875 503 L 877 505 L 877 503 L 880 501 Z M 747 475 L 745 477 L 743 476 L 744 481 L 749 479 Z M 845 474 L 857 486 L 856 484 L 858 480 L 855 477 L 852 481 L 848 477 L 850 472 L 847 475 Z M 761 432 L 775 431 L 771 427 L 766 427 Z M 793 425 L 842 472 L 834 464 L 836 461 L 838 461 L 829 452 L 828 453 L 832 458 L 831 460 L 828 459 L 803 435 L 803 432 L 806 431 L 801 426 L 801 429 L 798 430 Z M 793 413 L 786 417 L 786 424 L 791 420 Z M 740 412 L 743 420 L 747 424 L 747 417 Z M 794 396 L 792 398 L 792 402 L 795 406 Z M 899 395 L 898 399 L 895 398 L 895 474 L 899 474 Z M 896 446 L 899 447 L 898 452 L 895 451 Z M 899 381 L 895 381 L 895 390 L 896 386 L 898 386 L 899 389 Z M 751 375 L 742 386 L 750 380 Z M 820 371 L 806 379 L 808 380 L 808 383 L 816 379 L 816 374 Z M 771 371 L 775 375 L 780 374 Z M 849 355 L 842 359 L 844 361 L 841 365 L 839 364 L 840 360 L 824 369 L 827 368 L 830 371 L 850 360 L 848 357 Z M 866 348 L 870 356 L 882 365 L 890 367 L 898 367 L 903 365 L 897 361 L 894 361 L 894 358 L 892 358 L 888 364 L 883 365 L 881 361 L 875 357 L 874 348 Z M 874 322 L 868 327 L 864 326 L 864 340 L 866 337 L 867 328 Z M 901 317 L 898 317 L 897 319 L 894 318 L 892 325 L 898 326 L 901 323 Z M 917 312 L 919 316 L 915 322 L 914 329 L 918 327 L 922 329 L 924 340 L 922 341 L 921 339 L 918 339 L 913 332 L 911 334 L 907 334 L 907 336 L 904 338 L 904 347 L 902 348 L 902 353 L 905 354 L 908 358 L 907 363 L 912 361 L 919 353 L 924 340 L 924 328 L 921 318 Z M 909 342 L 914 343 L 918 348 L 919 353 L 916 356 L 913 356 L 905 347 Z M 904 303 L 904 313 L 907 314 L 911 310 L 915 310 L 911 306 Z M 898 301 L 889 301 L 878 305 L 867 317 L 871 317 L 878 310 L 882 303 L 884 303 L 886 309 L 889 310 L 893 302 Z M 827 245 L 819 250 L 825 250 Z"/>
    <path fill="#CFE7E5" d="M 765 685 L 749 678 L 744 678 L 737 693 L 726 708 L 703 729 L 715 747 L 726 739 L 744 721 L 758 701 L 765 688 Z M 776 593 L 755 602 L 757 618 L 755 647 L 773 655 L 776 655 L 779 640 L 779 607 Z M 747 586 L 739 589 L 740 592 L 738 594 L 746 591 L 744 589 Z M 714 501 L 702 519 L 727 543 L 738 559 L 743 570 L 746 571 L 765 563 L 756 544 L 744 527 L 726 509 Z"/>
    <path fill="#FD9755" d="M 573 737 L 569 734 L 562 746 L 568 745 Z M 598 692 L 582 715 L 587 717 L 602 694 Z M 507 588 L 507 593 L 523 599 L 524 595 Z M 510 591 L 513 590 L 516 593 L 511 594 Z M 573 540 L 556 553 L 541 573 L 530 598 L 527 620 L 528 640 L 536 666 L 551 690 L 571 708 L 573 708 L 586 689 L 587 685 L 581 681 L 570 669 L 560 651 L 556 637 L 555 618 L 558 602 L 564 588 L 571 577 L 587 562 Z M 572 512 L 571 514 L 597 554 L 596 552 L 599 549 L 575 511 Z M 584 446 L 581 448 L 583 452 L 587 449 Z"/>
    <path fill="#FBB05F" d="M 644 724 L 655 722 L 647 720 Z M 662 695 L 663 697 L 661 699 L 661 705 L 654 712 L 657 721 L 675 714 L 673 711 L 672 715 L 667 717 L 661 716 L 658 713 L 658 710 L 663 703 L 667 702 L 669 705 Z M 596 551 L 598 555 L 602 554 L 600 550 L 598 549 Z M 686 541 L 680 547 L 670 563 L 686 579 L 696 598 L 700 612 L 700 634 L 698 644 L 691 661 L 683 673 L 669 687 L 685 708 L 691 702 L 693 702 L 707 687 L 716 673 L 723 655 L 727 654 L 733 657 L 723 652 L 728 636 L 727 605 L 725 604 L 725 594 L 723 593 L 719 581 L 707 561 Z M 673 534 L 670 533 L 655 554 L 656 555 L 661 555 L 673 537 Z"/>
    <path fill="#FBCBAF" d="M 587 718 L 581 717 L 574 728 L 577 731 L 584 720 Z M 520 654 L 514 656 L 514 660 L 510 662 L 508 661 L 508 664 L 520 659 Z M 588 530 L 603 553 L 602 555 L 602 551 L 607 549 L 609 551 L 619 549 L 639 549 L 654 554 L 669 532 L 640 524 L 617 524 L 598 528 L 592 531 Z M 684 513 L 672 531 L 675 535 L 686 518 Z"/>
    <path fill="#FCB574" d="M 573 728 L 570 734 L 573 738 L 576 732 Z M 679 701 L 683 703 L 683 706 L 688 706 L 688 704 Z M 675 713 L 667 701 L 665 704 L 660 704 L 660 699 L 665 698 L 662 696 L 660 691 L 655 694 L 642 697 L 638 700 L 636 698 L 634 700 L 625 700 L 624 698 L 611 697 L 602 693 L 602 696 L 591 711 L 588 718 L 590 717 L 593 720 L 595 719 L 596 721 L 606 724 L 610 723 L 611 725 L 617 724 L 618 726 L 638 726 L 639 724 L 645 725 L 646 723 L 650 724 L 651 722 L 657 722 L 658 720 L 656 720 L 654 716 L 654 712 L 657 707 L 660 708 L 659 714 L 665 715 L 668 718 Z M 512 657 L 507 659 L 508 663 L 514 661 Z M 725 645 L 724 652 L 731 657 L 733 656 L 735 658 L 736 653 L 727 650 Z M 523 594 L 523 600 L 527 601 L 529 604 L 530 597 Z M 734 590 L 727 593 L 726 597 L 728 598 L 734 595 Z M 509 594 L 511 595 L 512 593 L 517 593 L 514 590 L 510 590 Z"/>
    <path fill="#E42C19" d="M 444 869 L 435 874 L 432 871 L 436 868 L 425 874 L 427 877 L 416 884 Z M 456 858 L 444 864 L 446 865 L 446 868 L 450 866 L 448 863 Z M 386 738 L 382 746 L 377 751 L 375 749 L 369 755 L 365 756 L 376 752 L 383 745 Z M 332 737 L 335 744 L 343 752 L 351 756 L 355 756 L 351 753 L 349 755 L 343 752 L 340 749 L 339 742 L 335 742 Z M 334 709 L 330 719 L 330 730 L 333 719 L 331 716 Z M 446 690 L 442 691 L 440 689 L 441 687 L 431 691 L 435 690 L 437 692 L 436 694 L 430 697 L 425 695 L 427 693 L 417 697 L 421 696 L 422 699 L 417 702 Z M 476 677 L 472 678 L 470 676 L 471 674 L 464 677 L 468 678 L 467 681 Z M 452 568 L 474 578 L 478 575 L 482 576 L 471 571 L 467 574 L 463 573 L 460 570 L 462 568 L 466 569 L 455 564 L 456 566 Z M 417 552 L 441 563 L 440 561 L 442 559 L 446 560 L 420 548 L 424 551 L 424 553 L 422 554 Z M 429 556 L 433 554 L 437 556 L 439 560 L 434 560 Z M 397 541 L 397 543 L 404 546 L 404 542 L 409 543 L 400 539 Z M 385 535 L 380 542 L 376 542 L 376 546 L 373 548 L 382 541 Z M 489 491 L 487 496 L 491 497 L 493 494 Z M 452 436 L 450 438 L 444 437 L 437 444 L 439 445 L 439 448 L 435 452 L 431 450 L 432 448 L 422 458 L 425 458 L 423 463 L 421 462 L 419 465 L 417 465 L 417 462 L 408 471 L 409 476 L 402 483 L 398 481 L 402 476 L 394 484 L 396 483 L 397 487 L 394 490 L 390 488 L 393 491 Z M 460 425 L 457 425 L 451 431 L 454 430 L 456 433 L 461 428 Z M 440 379 L 447 383 L 450 379 L 453 380 L 445 376 L 444 379 Z M 413 364 L 430 373 L 427 372 L 424 368 L 425 366 L 430 368 L 417 361 L 420 363 L 419 367 Z M 388 349 L 382 353 L 382 358 L 373 364 L 379 361 L 385 355 Z"/>
    <path fill="#52B2BA" d="M 698 755 L 711 775 L 713 772 L 717 773 L 714 771 L 703 753 Z M 767 577 L 749 584 L 751 585 L 750 588 L 767 582 Z M 704 484 L 697 492 L 700 496 L 705 490 L 704 488 L 707 487 L 705 487 Z"/>
    <path fill="#299D99" d="M 713 769 L 714 771 L 712 773 L 710 772 L 718 785 L 722 781 Z M 751 660 L 749 664 L 764 671 L 765 670 L 765 665 Z M 772 575 L 762 578 L 766 578 L 766 581 L 762 583 L 773 579 L 771 577 Z M 718 463 L 701 486 L 705 486 L 705 489 L 702 493 L 721 466 Z"/>
    <path fill="#F26C41" d="M 607 1052 L 601 1053 L 598 1057 L 603 1064 L 609 1062 L 610 1055 Z M 568 744 L 566 746 L 562 745 L 557 754 L 562 754 Z M 505 660 L 498 664 L 501 667 L 505 665 Z M 439 601 L 434 604 L 436 607 L 441 605 Z M 503 585 L 501 586 L 503 588 L 499 590 L 505 592 L 507 587 Z M 563 492 L 558 495 L 560 498 L 564 497 L 565 495 L 562 494 Z M 603 442 L 602 446 L 605 447 L 606 443 Z M 607 174 L 603 177 L 604 185 L 606 182 L 610 182 L 611 185 L 613 182 L 613 176 L 611 174 Z"/>
    <path fill="#A4BDA4" d="M 686 735 L 685 737 L 700 759 L 698 755 L 702 751 L 689 734 Z M 736 655 L 736 659 L 747 664 L 748 658 L 739 654 Z M 748 586 L 744 586 L 746 588 L 743 591 L 740 591 L 740 588 L 736 589 L 736 594 L 749 589 Z M 697 493 L 684 512 L 687 515 L 686 517 L 701 496 Z"/>
    <path fill="#747568" d="M 642 1052 L 638 1056 L 638 1061 L 642 1064 L 645 1064 L 649 1061 L 650 1057 L 647 1052 Z M 646 173 L 641 177 L 641 183 L 647 186 L 651 184 L 652 177 L 650 174 Z"/>
  </g>
</svg>
